<svg width="24" height="24" viewBox="0 0 24 24" fill="none" xmlns="http://www.w3.org/2000/svg">
<path d="M12.348 20.8006C12.1324 20.9241 11.8676 20.9241 11.652 20.8006L5.35198 17.1906C5.13428 17.0658 5 16.8341 5 16.5832V11.0586C5 10.8091 4.86722 10.5785 4.65145 10.4532L2.04708 8.94122C1.58139 8.67086 1.5826 7.9979 2.04926 7.72921L11.6507 2.2011C11.8669 2.07661 12.1331 2.07661 12.3493 2.2011L22.6493 8.1314C22.8663 8.25633 23 8.48765 23 8.73804V16.0778C23 16.4644 22.6866 16.7778 22.3 16.7778H21.7C21.3134 16.7778 21 16.4644 21 16.0778V10.7102C21 10.1706 20.4152 9.83395 19.9485 10.1049L19.3485 10.4532C19.1328 10.5785 19 10.8091 19 11.0586V16.5832C19 16.8341 18.8657 17.0658 18.648 17.1906L12.348 20.8006ZM11.6533 12.0412C11.8682 12.1637 12.1318 12.1637 12.3467 12.0412L17.7834 8.94144C18.2545 8.67287 18.2545 7.9938 17.7834 7.72523L12.3467 4.62546C12.1318 4.50293 11.8682 4.50293 11.6533 4.62546L6.21656 7.72523C5.74551 7.9938 5.74551 8.67287 6.21656 8.94144L11.6533 12.0412ZM11.6534 18.401C11.8682 18.5235 12.1318 18.5235 12.3466 18.401L16.6466 15.95C16.8651 15.8255 17 15.5934 17 15.3419V12.9797C17 12.4401 16.4152 12.1034 15.9485 12.3743L12.3515 14.4626C12.1341 14.5888 11.8659 14.5888 11.6485 14.4626L8.05145 12.3743C7.58479 12.1034 7 12.4401 7 12.9797V15.3419C7 15.5934 7.13489 15.8255 7.35336 15.95L11.6534 18.401Z" fill="white"/>
</svg>
