<svg width="24" height="24" viewBox="0 0 24 24" fill="none" xmlns="http://www.w3.org/2000/svg">
<path d="M19.4233 0.0429746C19.2099 -0.0252451 18.9787 -0.0118814 18.7746 0.0804807C18.5705 0.172843 18.4078 0.337637 18.3182 0.542975C18.0432 1.01797 17.7732 1.75296 18.2782 3.12296C18.5958 3.85995 18.8176 4.63462 18.9382 5.42798C18.8658 6.18916 18.749 6.94544 18.5882 7.69297C18.5355 7.59036 18.492 7.48326 18.4582 7.37296C18.2117 6.58038 17.6763 5.90941 16.9582 5.49299C16.4582 5.16799 16.0032 5.19797 15.7132 5.56797C15.4808 5.9279 15.38 6.3572 15.4282 6.78296C15.5082 8.14296 16.7882 9.03796 17.1832 9.28296C17.4628 9.45703 17.7169 9.66906 17.9382 9.91297C17.4681 11.272 16.8335 12.5683 16.0483 13.773C16.0111 13.3383 15.8834 12.9162 15.6733 12.5338C15.4631 12.1515 15.1753 11.8174 14.8282 11.553C14.6784 11.4614 14.5071 11.4108 14.3316 11.4064C14.156 11.4021 13.9824 11.444 13.8282 11.528C13.6797 11.6077 13.5488 11.7165 13.4432 11.848C12.7782 12.703 13.2532 14.348 13.7082 15.053C13.92 15.3779 14.0881 15.7292 14.2082 16.098C13.2466 17.1369 12.1639 18.0568 10.9833 18.838C11.1148 18.3185 11.0869 17.7714 10.9032 17.268C10.6432 16.653 10.2683 16.268 9.84825 16.228C9.34825 16.158 8.79821 16.588 8.48821 17.348C8.17821 18.108 8.48823 19.563 8.69323 20.133C6.8522 21.0177 4.89131 21.6276 2.87322 21.943C2.63322 21.983 2.43824 22.228 2.51824 22.393C2.54824 22.458 2.64324 22.668 3.01824 22.608C4.37128 22.3981 5.70194 22.0634 6.99321 21.608C7.42475 22.3425 8.00976 22.9753 8.70824 23.463C9.51824 23.938 10.7783 24.013 11.2933 23.358C11.3826 23.2392 11.4464 23.1034 11.4808 22.9588C11.5152 22.8143 11.5194 22.6642 11.4932 22.518C11.3832 21.618 10.0732 21.123 8.86321 20.858C10.3214 20.1995 11.6906 19.3596 12.9382 18.358C13.667 19.0082 14.4853 19.5504 15.3682 19.968C16.3182 20.363 17.6233 20.358 18.1583 19.673C18.2614 19.5362 18.3332 19.3784 18.3686 19.2108C18.404 19.0431 18.4021 18.8698 18.3632 18.703C18.1332 17.358 16.2433 17.133 15.5333 17.048H15.3583C15.0562 17.0144 14.7521 17.001 14.4482 17.008C14.6916 16.758 14.9365 16.493 15.1832 16.213L15.2432 16.158L15.2933 16.083C15.9336 15.332 16.5105 14.5293 17.0182 13.683C17.8434 14.047 18.7642 14.1347 19.6432 13.933C20.1744 13.7773 20.6465 13.4654 20.9982 13.038C21.1618 12.8576 21.2769 12.6387 21.3329 12.4017C21.3888 12.1647 21.3838 11.9175 21.3182 11.683C21.2456 11.5122 21.1284 11.364 20.9789 11.254C20.8293 11.1441 20.653 11.0764 20.4683 11.058C19.7101 10.8983 18.9208 10.9823 18.2132 11.298C18.9424 9.4223 19.4117 7.45577 19.6083 5.45298C20.2305 4.54173 20.5457 3.45575 20.5082 2.35297C20.5322 1.90492 20.4388 1.45836 20.237 1.05756C20.0353 0.656763 19.7324 0.315633 19.3583 0.0679685" fill="white"/>
</svg>
