<svg width="360" height="360" viewBox="0 0 360 360" fill="none" xmlns="http://www.w3.org/2000/svg">
<g clip-path="url(#clip0_156_39137)">
<g clip-path="url(#clip1_156_39137)">
<path d="M537.409 94.9282H-42.2598V254.903H537.409V94.9282Z" fill="#D9E5A7"/>
<path d="M106.472 95L90 376H423L386.796 227.293L270.548 95H106.472Z" fill="#B0CC47"/>
<path d="M90.2342 -10.4805C105.327 16.6052 113.131 59.9423 108.672 105.085C108.286 108.922 107.814 112.759 107.257 116.371C107.277 116.482 107.277 116.598 107.257 116.709V117.33C107.253 117.424 107.253 117.518 107.257 117.612V118.572C107.23 118.662 107.23 118.763 107.257 118.854V119.531C107.257 119.531 107.257 119.531 107.257 119.869V120.547C107.237 120.658 107.237 120.774 107.257 120.885C93.7932 202.368 49.071 236.789 15.2402 251.799" fill="#D9E5A7"/>
<path d="M14.5101 252.364C6.85333 255.71 -0.950515 258.442 -8.85845 260.545C-17.5013 262.992 -26.3037 264.334 -35.1427 264.552C-44.9618 237.805 -43.7181 212.92 -49.6782 164.561C-57.3534 100.571 -58.1687 -1.99436 -35.1432 -27.5001C-27.7578 -35.3668 33.4495 -19.1938 42.5 -22.9998C58.0494 -29.5492 73.9558 -12.1487 90.2329 -10.4809" fill="#D9E5A7"/>
<path d="M89.2688 -10C105.164 19.0581 113.382 65.5509 108.686 113.981C108.279 118.098 107.783 122.214 107.196 126.089C107.217 126.208 107.217 126.332 107.196 126.452V126.754C107.192 126.855 107.192 126.957 107.196 127.057C107.168 127.155 107.168 127.263 107.196 127.36V128.086C107.196 128.086 107.196 128.086 107.196 128.45V129.176C93.0169 216.593 45.9187 253.521 10.2906 269.624C2.22697 273.213 -5.99122 276.145 -14.3193 278.402C-23.4214 281.027 -32.6914 282.466 -42 282.7C-38.0974 293.154 -33.3259 302.983 -27.776 312" fill="#75B077"/>
<path d="M-38.5 361.851C-18.7081 393.966 52.7905 395.34 109.407 390.529C121.112 389.571 132.673 386.63 143.805 381.782C154.644 376.948 164.948 370.246 174.444 361.851C247.95 296.685 250.567 231.644 247.046 184.035C243.526 136.426 266.473 12.6128 182.5 -24C169.35 -29.7553 100.828 -22.7442 87 -24" fill="#75B077"/>
<path d="M500 57C473.244 120.369 414.564 197.007 402.601 203.665C371 221.158 325.42 235.435 260.074 165.463C194.728 95.4918 207.549 -34.4068 230.489 -79.3804" fill="#A3C8D8"/>
<path d="M387.333 233.695C356.847 246.109 315.769 247.294 260.242 187.988C218.865 143.692 199.97 45.0257 204.001 -10.5L387.333 233.695Z" fill="#354863"/>
</g>
</g>
<defs>
<clipPath id="clip0_156_39137">
<rect width="360" height="360" fill="white"/>
</clipPath>
<clipPath id="clip1_156_39137">
<rect width="2637" height="394" fill="white" transform="translate(-623 -22)"/>
</clipPath>
</defs>
</svg>
