<svg width="24" height="24" viewBox="0 0 24 24" fill="none" xmlns="http://www.w3.org/2000/svg">
<g clip-path="url(#clip0_156_32925)">
<path d="M19.988 21.0065C25.2525 16.4594 24.1185 10.4777 23.2817 7.75367C22.445 5.02961 20.7149 1.54957 13.8334 0.193983C6.95182 -1.1616 1.3529 4.91678 0.394979 8.20016C-0.562943 11.4835 0.39498 12.7279 1.42559 16.8704C2.45621 21.0129 8.19244 22.9633 10.714 23.7386C13.2357 24.5139 17.0415 23.5532 19.988 21.0065Z" fill="#FF7E7E"/>
<path d="M17.2457 7.92925C17.5701 7.60478 17.5701 7.07872 17.2457 6.75425V6.75425C16.9212 6.42978 16.3951 6.42978 16.0707 6.75425L12.7069 10.118C12.3164 10.5085 11.6833 10.5085 11.2927 10.118L7.929 6.75425C7.60454 6.42978 7.07847 6.42978 6.754 6.75425V6.75425C6.42954 7.07872 6.42954 7.60478 6.754 7.92925L10.1177 11.293C10.5083 11.6835 10.5083 12.3167 10.1177 12.7072L6.754 16.0709C6.42954 16.3954 6.42954 16.9214 6.754 17.2459V17.2459C7.07847 17.5704 7.60454 17.5704 7.929 17.2459L11.2927 13.8822C11.6833 13.4917 12.3164 13.4917 12.7069 13.8822L16.0707 17.2459C16.3951 17.5704 16.9212 17.5704 17.2457 17.2459V17.2459C17.5701 16.9214 17.5701 16.3954 17.2457 16.0709L13.8819 12.7072C13.4914 12.3167 13.4914 11.6835 13.8819 11.293L17.2457 7.92925Z" fill="white"/>
</g>
<defs>
<clipPath id="clip0_156_32925">
<rect width="24" height="24" fill="white"/>
</clipPath>
</defs>
</svg>
