<svg width="24" height="24" viewBox="0 0 24 24" fill="none" xmlns="http://www.w3.org/2000/svg">
<g clip-path="url(#clip0_156_32932)">
<path d="M19.988 21.0065C25.2525 16.4594 24.1185 10.4777 23.2817 7.75367C22.445 5.02961 20.7149 1.54957 13.8334 0.193983C6.95182 -1.1616 1.3529 4.91678 0.394979 8.20016C-0.562943 11.4835 0.39498 12.7279 1.42559 16.8704C2.45621 21.0129 8.19244 22.9633 10.714 23.7386C13.2357 24.5139 17.0415 23.5532 19.988 21.0065Z" fill="#6EB17E"/>
<path d="M9.42959 18.2836L9.71189 18.5644L9.99398 18.2834L20.1536 8.16297L20.1645 8.1521L20.1745 8.14043C20.328 7.96201 20.4084 7.73219 20.3993 7.49686C20.3902 7.26153 20.2922 7.03865 20.1254 6.87263C19.9587 6.70666 19.7356 6.60972 19.5008 6.60069C19.2659 6.59166 19.036 6.67117 18.857 6.82377L18.8454 6.83371L18.8345 6.84452L9.70113 15.9275L5.16568 11.4119L5.15473 11.401L5.14298 11.391C4.964 11.2384 4.73411 11.1589 4.49925 11.1679C4.26439 11.177 4.04126 11.2739 3.87456 11.4399C3.70781 11.6059 3.60983 11.8288 3.6007 12.0641C3.59157 12.2994 3.672 12.5293 3.82546 12.7077L3.8356 12.7195L3.84663 12.7304L9.42959 18.2836Z" fill="white" stroke="white" stroke-width="0.8"/>
</g>
<defs>
<clipPath id="clip0_156_32932">
<rect width="24" height="24" fill="white"/>
</clipPath>
</defs>
</svg>
