<svg width="16" height="16" viewBox="0 0 16 16" fill="none" xmlns="http://www.w3.org/2000/svg">
<path d="M10.4526 11.2154L11.2026 10.4654L8.5526 7.7987V4.4487H7.5526V8.1987L10.4526 11.2154ZM8.0026 14.6654C7.09149 14.6654 6.23038 14.4904 5.41927 14.1404C4.60816 13.7904 3.89983 13.3126 3.29427 12.707C2.68872 12.1015 2.21094 11.3931 1.86094 10.582C1.51094 9.77092 1.33594 8.90981 1.33594 7.9987C1.33594 7.08759 1.51094 6.22648 1.86094 5.41536C2.21094 4.60425 2.68872 3.89592 3.29427 3.29036C3.89983 2.68481 4.60816 2.20703 5.41927 1.85703C6.23038 1.50703 7.09149 1.33203 8.0026 1.33203C8.91371 1.33203 9.77483 1.50703 10.5859 1.85703C11.397 2.20703 12.1054 2.68481 12.7109 3.29036C13.3165 3.89592 13.7943 4.60425 14.1443 5.41536C14.4943 6.22648 14.6693 7.08759 14.6693 7.9987C14.6693 8.90981 14.4943 9.77092 14.1443 10.582C13.7943 11.3931 13.3165 12.1015 12.7109 12.707C12.1054 13.3126 11.397 13.7904 10.5859 14.1404C9.77483 14.4904 8.91371 14.6654 8.0026 14.6654ZM8.0026 13.6654C9.55816 13.6654 10.8915 13.1098 12.0026 11.9987C13.1137 10.8876 13.6693 9.55425 13.6693 7.9987C13.6693 6.44314 13.1137 5.10981 12.0026 3.9987C10.8915 2.88759 9.55816 2.33203 8.0026 2.33203C6.44705 2.33203 5.11372 2.88759 4.0026 3.9987C2.89149 5.10981 2.33594 6.44314 2.33594 7.9987C2.33594 9.55425 2.89149 10.8876 4.0026 11.9987C5.11372 13.1098 6.44705 13.6654 8.0026 13.6654Z" fill="white"/>
</svg>
