<svg width="116" height="48" viewBox="0 0 116 48" fill="none" xmlns="http://www.w3.org/2000/svg">
<path d="M21.2485 4.83171C21.2767 5.48551 21.1731 6.13831 20.9438 6.75075C20.7145 7.36319 20.3643 7.92259 19.9142 8.39528C19.4642 8.86796 18.9236 9.24413 18.3251 9.50112C17.7267 9.75811 17.0827 9.89059 16.432 9.89059C15.7812 9.89059 15.1372 9.75811 14.5387 9.50112C13.9403 9.24413 13.3997 8.86796 12.9497 8.39528C12.4997 7.92259 12.1494 7.36319 11.9201 6.75075C11.6908 6.13831 11.5871 5.48551 11.6154 4.83171C11.6016 4.19783 11.719 3.56799 11.9602 2.98216C12.2013 2.39634 12.561 1.86733 13.0163 1.42873C13.4628 0.977828 13.9948 0.621614 14.5808 0.381203C15.1667 0.140793 15.7946 0.0210763 16.4274 0.0291157C17.0607 0.0173903 17.6897 0.135417 18.2761 0.376039C18.8626 0.616661 19.3942 0.974841 19.8386 1.42873C20.2955 1.86653 20.6568 2.39519 20.8995 2.98105C21.1423 3.56691 21.2611 4.19716 21.2485 4.83171ZM16.4183 2.08737C16.0773 2.08377 15.7393 2.15189 15.426 2.28737C15.1127 2.42285 14.831 2.62268 14.599 2.87407C14.1126 3.39627 13.8482 4.08888 13.8622 4.80427C13.8434 5.52594 14.1081 6.226 14.599 6.75276C14.8329 7.00193 15.1148 7.20043 15.4277 7.33611C15.7405 7.47179 16.0776 7.54177 16.4183 7.54177C16.759 7.54177 17.0961 7.47179 17.4089 7.33611C17.7218 7.20043 18.0038 7.00193 18.2376 6.75276C18.7285 6.226 18.9932 5.52594 18.9744 4.80427C18.9884 4.08888 18.724 3.39627 18.2376 2.87407C18.0074 2.62039 17.7261 2.41901 17.4123 2.28335C17.0986 2.14769 16.7597 2.08088 16.4183 2.08737Z" fill="white"/>
<path d="M30.1002 6.85332V8.96646C29.2677 9.43591 28.3255 9.6728 27.3713 9.65254C26.7305 9.66946 26.0932 9.55399 25.4986 9.31324C24.9041 9.0725 24.365 8.71162 23.9147 8.25293C23.0273 7.33584 22.5308 6.10671 22.5308 4.82708C22.5308 3.54745 23.0273 2.31833 23.9147 1.40124C24.365 0.942551 24.9041 0.581667 25.4986 0.340925C26.0932 0.100183 26.7305 -0.015295 27.3713 0.0016233C27.8228 -0.00149498 28.2726 0.0569761 28.7085 0.175434C29.0249 0.24855 29.3306 0.362302 29.6181 0.513898L29.9183 0.687709V2.78254C29.1857 2.32965 28.3403 2.09494 27.4804 2.10561C27.1207 2.09325 26.7625 2.15686 26.4288 2.29237C26.095 2.42788 25.7932 2.63228 25.5429 2.89233C25.0469 3.41478 24.7702 4.10933 24.7702 4.83166C24.7702 5.55399 25.0469 6.24854 25.5429 6.77099C25.7941 7.03551 26.0985 7.24326 26.4356 7.38047C26.7728 7.51769 27.1352 7.58122 27.4986 7.56685C27.9139 7.56444 28.3269 7.50598 28.7266 7.39304C29.0719 7.30071 29.4095 7.18144 29.7364 7.03629L30.1002 6.85332Z" fill="white"/>
<path d="M34.4482 0.220703V3.69686L37.2681 0.220703H40.179L36.4221 4.56591L40.4973 9.48743H37.5865L34.4482 5.60877V9.48743H32.165V0.220703H34.4482Z" fill="white"/>
<path d="M50.5123 4.83194C50.5147 5.47008 50.3913 6.10237 50.1493 6.69229C49.9073 7.28221 49.5515 7.81806 49.1024 8.26887C48.6533 8.71968 48.1197 9.07654 47.5327 9.3188C46.9456 9.56105 46.3166 9.6839 45.6821 9.68026C45.0481 9.68642 44.4193 9.56508 43.8326 9.32337C43.246 9.08167 42.7133 8.72449 42.2658 8.27281C41.8184 7.82112 41.4652 7.28405 41.2271 6.69316C40.989 6.10226 40.8707 5.46946 40.8792 4.83194C40.8675 4.19917 40.985 3.57069 41.2244 2.98538C41.4638 2.40007 41.8199 1.87036 42.2709 1.42896C42.7175 0.978055 43.2495 0.621841 43.8354 0.381431C44.4214 0.141021 45.0493 0.0213038 45.6821 0.0293431C46.3156 0.0160023 46.945 0.133289 47.5317 0.374005C48.1184 0.614721 48.6498 0.973762 49.0932 1.42896C49.5518 1.86596 49.9148 2.39423 50.1591 2.98013C50.4035 3.56603 50.5237 4.19671 50.5123 4.83194ZM45.673 2.0876C45.3322 2.08567 44.9947 2.15454 44.6817 2.28991C44.3686 2.42529 44.0867 2.62424 43.8537 2.8743C43.3706 3.39793 43.1095 4.09038 43.126 4.8045C43.1124 5.52359 43.3727 6.2207 43.8537 6.75298C44.0882 7.00098 44.3704 7.19842 44.6832 7.33335C44.9959 7.46827 45.3327 7.53784 45.673 7.53784C46.0133 7.53784 46.35 7.46827 46.6628 7.33335C46.9755 7.19842 47.2577 7.00098 47.4922 6.75298C47.9732 6.2207 48.2336 5.52359 48.22 4.8045C48.2365 4.09038 47.9754 3.39793 47.4922 2.8743C47.2613 2.62155 46.9799 2.42078 46.6663 2.28519C46.3528 2.14961 46.0142 2.08228 45.673 2.0876Z" fill="white"/>
<path d="M60.1002 2.88333C60.106 3.19984 60.0374 3.51325 59.9001 3.79811C59.8051 4.02258 59.6693 4.22732 59.4998 4.40187L59.2906 4.58481C59.3982 4.65478 59.5014 4.73115 59.5999 4.8135C59.8036 5.02152 59.9752 5.25895 60.1093 5.5179C60.3188 5.89162 60.4256 6.31473 60.4186 6.7437C60.4328 7.12584 60.358 7.50601 60.2001 7.85387C60.0421 8.20173 59.8054 8.50762 59.5089 8.74707C58.8262 9.27736 57.9783 9.54644 57.1166 9.50633H52.4956V0.221313H56.5799C57.4987 0.171731 58.4102 0.408096 59.1906 0.898241C59.4943 1.12704 59.7365 1.42835 59.8953 1.77494C60.0541 2.12154 60.1246 2.50249 60.1002 2.88333ZM54.6424 3.79811H56.5344C56.8523 3.81439 57.1681 3.73817 57.444 3.57857C57.5424 3.52252 57.6245 3.44146 57.6819 3.34354C57.7394 3.24561 57.7703 3.13424 57.7716 3.02054C57.775 2.90916 57.7489 2.79887 57.6962 2.70086C57.6435 2.60285 57.5659 2.52062 57.4714 2.46254C57.2442 2.33378 56.9861 2.27047 56.7254 2.27957H54.697L54.6424 3.79811ZM58.0626 6.61562C58.0626 6.04846 57.5805 5.76488 56.6163 5.76488H54.6424V7.41147H56.8073C57.125 7.42572 57.4403 7.34964 57.717 7.19194C57.8191 7.13481 57.9041 7.05123 57.9633 6.9499C58.0225 6.84856 58.0537 6.73314 58.0535 6.61562" fill="white"/>
<path d="M69.4593 6.85342V8.96656C68.6268 9.43602 67.6846 9.6729 66.7303 9.65265C65.7824 9.6518 64.8557 9.36991 64.0662 8.84225C63.2766 8.31459 62.6594 7.56458 62.2915 6.68598C61.9236 5.80738 61.8214 4.83919 61.9977 3.9025C62.174 2.96581 62.621 2.10219 63.2828 1.41963C63.7355 0.96156 64.2763 0.601171 64.8722 0.360516C65.4681 0.119862 66.1066 0.00400354 66.7486 0.0200142C67.2 0.0168959 67.6498 0.075367 68.0857 0.193825C68.4021 0.266941 68.7078 0.380693 68.9953 0.532289L69.2955 0.706099V2.80095C68.5629 2.34807 67.7176 2.11333 66.8577 2.124C66.498 2.11164 66.1397 2.17528 65.806 2.31079C65.4723 2.4463 65.1705 2.65067 64.9202 2.91072C64.4242 3.43317 64.1474 4.12772 64.1474 4.85005C64.1474 5.57238 64.4242 6.26693 64.9202 6.78938C65.1714 7.0539 65.4757 7.26168 65.8129 7.39889C66.1501 7.5361 66.5124 7.59961 66.8759 7.58524C67.2911 7.58283 67.7041 7.52437 68.1039 7.41143C68.4496 7.3206 68.7873 7.20129 69.1136 7.05468L69.4593 6.85342Z" fill="white"/>
<path d="M73.7627 0.220703V3.69686L76.5826 0.220703H79.4935L75.7367 4.56591L79.8118 9.48743H76.901L73.7627 5.60877V9.48743H71.4795V0.220703H73.7627Z" fill="white"/>
<path d="M81.3223 9.48743V0.220703H83.5964V5.91064L83.8966 5.19711L87.1167 0.220703H89.5V9.48743H87.2259V3.77921L86.9257 4.51102L83.6874 9.48743H81.3223Z" fill="white"/>
<path d="M100.225 5.7643H93.8119C93.9861 6.30513 94.323 6.77822 94.7761 7.11818C95.2527 7.46886 95.8322 7.64918 96.4225 7.63046C96.8952 7.62761 97.3656 7.56615 97.8233 7.44749C98.1909 7.35847 98.5477 7.22967 98.8876 7.0633L99.2424 6.88033V9.03007C98.3676 9.4882 97.3901 9.71188 96.4043 9.67956C95.7434 9.70398 95.0846 9.59064 94.4694 9.34662C93.8542 9.1026 93.2958 8.7332 92.8294 8.26166C92.3861 7.81922 92.036 7.29146 91.8 6.70992C91.564 6.12839 91.447 5.50499 91.4559 4.87696C91.4412 4.2402 91.5535 3.60694 91.7863 3.0146C92.0191 2.42225 92.3676 1.88285 92.8112 1.42825C93.2298 0.978195 93.7374 0.621174 94.3014 0.380135C94.8653 0.139096 95.4732 0.0193697 96.086 0.0286334C96.6498 0.00983249 97.2114 0.108178 97.7357 0.317517C98.26 0.526857 98.7358 0.842679 99.1332 1.24528C99.54 1.63186 99.8606 2.10082 100.074 2.62119C100.287 3.14156 100.388 3.70153 100.37 4.26407C100.383 4.49869 100.383 4.73382 100.37 4.96844C100.37 5.21543 100.325 5.41667 100.298 5.55389L100.225 5.7643ZM96.1769 1.99541C95.6045 1.98562 95.0504 2.19866 94.6305 2.59001C94.1801 2.99457 93.8628 3.52742 93.7209 4.1177H98.2691C98.2777 3.82817 98.2227 3.54028 98.1079 3.27461C97.9931 3.00894 97.8214 2.77203 97.605 2.58085C97.2159 2.20559 96.6978 1.99587 96.1587 1.99541" fill="white"/>
<path d="M10.761 16.9976V26.2643H0V16.9976H2.2832V24.2243H4.2571V16.9976H6.47662V24.2243H8.48689V16.9976H10.761Z" fill="white"/>
<path d="M15.6554 16.9976V20.4829L18.4754 16.9976H21.3953L17.6294 21.3519L21.7137 26.2643H18.7937L15.6554 22.3856V26.2643H13.3813V16.9976H15.6554Z" fill="white"/>
<path d="M31.7199 21.618C31.7211 22.2553 31.5969 22.8866 31.3543 23.4755C31.1118 24.0643 30.7558 24.5991 30.3068 25.049C29.8578 25.4988 29.3247 25.8548 28.7382 26.0965C28.1518 26.3382 27.5235 26.4607 26.8897 26.4571C26.2562 26.4645 25.6276 26.3443 25.041 26.1036C24.4544 25.8629 23.9216 25.5066 23.474 25.0556C23.0264 24.6047 22.6731 24.0682 22.4349 23.4778C22.1967 22.8874 22.0783 22.255 22.0868 21.618C22.0744 20.9837 22.1916 20.3537 22.4309 19.7668C22.6703 19.1799 23.0269 18.6486 23.4786 18.2058C23.9252 17.7549 24.4572 17.3987 25.0431 17.1583C25.629 16.9179 26.257 16.7982 26.8897 16.8062C27.5232 16.7929 28.1527 16.9101 28.7394 17.1509C29.3261 17.3916 29.8575 17.7506 30.3009 18.2058C30.7606 18.6439 31.1243 19.1736 31.3686 19.7612C31.613 20.3488 31.7327 20.9812 31.7199 21.618ZM26.8897 18.8736C26.5479 18.87 26.2091 18.9391 25.8956 19.0762C25.5821 19.2133 25.3009 19.4155 25.0705 19.6695C24.584 20.1917 24.3197 20.8842 24.3337 21.5996C24.3225 22.32 24.5862 23.0172 25.0705 23.5481C25.3043 23.7973 25.5863 23.9958 25.8991 24.1315C26.2119 24.2672 26.5491 24.3372 26.8897 24.3372C27.2304 24.3372 27.5676 24.2672 27.8804 24.1315C28.1932 23.9958 28.4752 23.7973 28.709 23.5481C29.1933 23.0172 29.457 22.32 29.4458 21.5996C29.4598 20.8842 29.1954 20.1917 28.709 19.6695C28.48 19.4137 28.1991 19.2102 27.8853 19.0729C27.5714 18.9356 27.232 18.8677 26.8897 18.8736Z" fill="white"/>
<path d="M34.1846 23.7486L34.8395 16.9976H41.3707V26.2643H39.133V19.0375H36.7953L36.2677 24.3798L34.4484 26.8772L32.7383 25.7337L34.1846 23.7486Z" fill="white"/>
<path d="M43.9897 26.2643V16.9976H46.2275V20.2542H47.9467C48.8442 20.223 49.7227 20.5186 50.4209 21.0866C50.7362 21.3403 50.989 21.6639 51.1594 22.032C51.3298 22.4002 51.4133 22.803 51.4033 23.2089C51.4082 23.6304 51.3245 24.0481 51.1577 24.4347C50.9953 24.8043 50.7566 25.1349 50.4573 25.4044C50.1409 25.6861 49.7733 25.9035 49.3748 26.0447C48.9203 26.1967 48.4437 26.2709 47.9649 26.2643H43.9897ZM46.2275 22.2941V24.2335H47.9831C48.2786 24.2432 48.5671 24.1421 48.7927 23.9499C48.8982 23.8638 48.9832 23.755 49.0415 23.6315C49.0997 23.5081 49.1297 23.373 49.1292 23.2364C49.1237 23.109 49.0897 22.9845 49.0299 22.8721C48.9701 22.7596 48.8859 22.6622 48.7836 22.5869C48.5587 22.3997 48.2749 22.2992 47.9831 22.3033L46.2275 22.2941ZM52.4585 16.9976H54.7326V26.2643H52.4585V16.9976Z" fill="white"/>
<path d="M0 43.0513V33.7754H2.2832V39.4745L2.58334 38.7518L5.79439 33.7754H8.18675V43.0513H5.91265V37.3339L5.61246 38.0749L2.37414 43.0513H0Z" fill="white"/>
<path d="M17.7193 40.4346V42.5295C16.885 42.9933 15.9435 43.2268 14.9904 43.2064C14.3483 43.2235 13.7095 43.1081 13.1134 42.8674C12.5174 42.6267 11.9767 42.2657 11.5247 41.8068C10.6378 40.8912 10.1416 39.6636 10.1416 38.3855C10.1416 37.1074 10.6378 35.8798 11.5247 34.9643C11.9767 34.5053 12.5174 34.1444 13.1134 33.9036C13.7095 33.6629 14.3483 33.5476 14.9904 33.5646C15.4382 33.5624 15.8846 33.6178 16.3185 33.7293C16.6322 33.8113 16.9369 33.9246 17.2281 34.0678L17.5283 34.2416V36.3456C16.794 35.8878 15.9452 35.6498 15.0813 35.6595C14.7207 35.6465 14.3616 35.7108 14.0276 35.848C13.6935 35.9852 13.3923 36.1922 13.1438 36.4553C12.6441 36.9717 12.3664 37.665 12.3706 38.3855C12.3674 39.1113 12.6447 39.8099 13.1438 40.334C13.3954 40.5981 13.6998 40.8055 14.0369 40.9427C14.374 41.0799 14.7361 41.1437 15.0995 41.1299C15.5181 41.1241 15.9341 41.0626 16.3366 40.9469C16.6786 40.8572 17.0132 40.741 17.3373 40.5993L17.7193 40.4346Z" fill="white"/>
<path d="M22.0671 33.7754V37.2607L24.8869 33.7754H27.8069L24.041 38.1298L28.1252 43.0513H25.2053L22.0671 39.1726V43.0513H19.793V33.7754H22.0671Z" fill="white"/>
<path d="M35.8037 33.7753H38.2415L34.5393 44.9996L32.3562 48.0001L30.737 46.7743L32.4108 44.2587L32.8474 43.0511H31.9104L29.3634 36.0256L28.3174 35.0102L29.5545 33.4551L31.21 34.7084L33.4295 40.9654H33.5023L35.8037 33.7753Z" fill="white"/>
<path d="M46.5729 40.4345V42.5293C45.7385 42.9931 44.797 43.2267 43.844 43.2063C43.2018 43.2234 42.563 43.108 41.967 42.8673C41.3709 42.6266 40.8302 42.2656 40.3782 41.8067C39.4914 40.8911 38.9951 39.6635 38.9951 38.3854C38.9951 37.1073 39.4914 35.8797 40.3782 34.9641C40.8289 34.5059 41.368 34.1453 41.9625 33.9046C42.557 33.6639 43.1942 33.5481 43.8348 33.5645C44.2857 33.5617 44.7351 33.617 45.172 33.7292C45.4857 33.8111 45.7904 33.9245 46.0816 34.0676L46.3818 34.2414V36.3454C45.6475 35.8877 44.7988 35.6497 43.9349 35.6593C43.5743 35.6464 43.2151 35.7107 42.8811 35.8479C42.547 35.9851 42.2458 36.1921 41.9974 36.4552C41.4977 36.9716 41.22 37.6649 41.2242 38.3854C41.221 39.1111 41.4982 39.8097 41.9974 40.3339C42.249 40.5979 42.5534 40.8054 42.8905 40.9426C43.2275 41.0797 43.5897 41.1435 43.9531 41.1297C44.3717 41.124 44.7877 41.0624 45.1902 40.9468C45.5322 40.8571 45.8667 40.7409 46.1908 40.5992L46.5729 40.4345Z" fill="white"/>
<path d="M55.5694 40.4349V42.5298C54.7341 42.9911 53.7933 43.2245 52.8405 43.2067C52.1985 43.2227 51.5601 43.1069 50.9642 42.8662C50.3683 42.6255 49.8274 42.2652 49.3748 41.8071C48.4943 40.8882 48.0024 39.6619 48.0024 38.3858C48.0024 37.1098 48.4943 35.8834 49.3748 34.9645C49.8274 34.5065 50.3683 34.1461 50.9642 33.9054C51.5601 33.6648 52.1985 33.5489 52.8405 33.5649C53.2913 33.5633 53.7406 33.6186 54.1777 33.7296C54.4917 33.8107 54.7965 33.9241 55.0873 34.0681L55.3875 34.2419V36.3458C54.6559 35.8898 53.8105 35.6518 52.9497 35.6598C52.5891 35.6468 52.2299 35.7111 51.8959 35.8483C51.5619 35.9855 51.2606 36.1925 51.0121 36.4556C50.7622 36.7096 50.5651 37.0111 50.4324 37.3425C50.2996 37.6739 50.2339 38.0286 50.239 38.3858C50.2299 39.1127 50.508 39.8134 51.0121 40.3343C51.2634 40.5988 51.5677 40.8066 51.9049 40.9438C52.2421 41.081 52.6044 41.1445 52.9679 41.1302C53.3834 41.1237 53.7963 41.0622 54.1959 40.9472C54.5383 40.859 54.873 40.7427 55.1965 40.5996L55.5694 40.4349Z" fill="white"/>
<path d="M64.3387 35.8245H61.628V43.0513H59.3903V35.8245H56.6978V33.7754H64.3387V35.8245Z" fill="white"/>
<path d="M73.6632 36.4463C73.6707 36.763 73.6021 37.0768 73.4631 37.3611C73.3733 37.5906 73.2334 37.797 73.0537 37.9649L72.8445 38.1569C72.9585 38.2214 73.0652 38.2981 73.1629 38.3856C73.3671 38.5898 73.5389 38.8243 73.6723 39.0809C73.8825 39.4576 73.9893 39.8839 73.9815 40.3158C73.9936 40.6977 73.9179 41.0772 73.7601 41.4247C73.6023 41.7722 73.3667 42.0783 73.0719 42.3192C72.3891 42.8495 71.5413 43.1186 70.6796 43.0785H66.0586V33.7751H70.152C71.0692 33.7247 71.979 33.9647 72.7535 34.4612C73.0572 34.69 73.2995 34.9913 73.4583 35.3379C73.6171 35.6845 73.6875 36.0655 73.6632 36.4463ZM68.2053 37.3611H70.0974C70.4153 37.3774 70.7311 37.3011 71.007 37.1415C71.1054 37.0855 71.1874 37.0044 71.2449 36.9065C71.3023 36.8086 71.3333 36.6972 71.3345 36.5835C71.337 36.4723 71.3106 36.3623 71.2579 36.2645C71.2053 36.1666 71.1282 36.0843 71.0343 36.0255C70.7878 35.8861 70.5072 35.8195 70.2248 35.8334H68.1962L68.2053 37.3611ZM71.6256 40.1786C71.6256 39.6114 71.1434 39.3279 70.1792 39.3279H68.2053V40.9745H70.3703C70.688 40.9887 71.0032 40.9126 71.2799 40.7549C71.3833 40.6993 71.4695 40.6161 71.5289 40.5144C71.5883 40.4127 71.6186 40.2965 71.6165 40.1786" fill="white"/>
<path d="M112.45 0.449911C112.074 0.326442 111.665 0.346823 111.303 0.507141C110.94 0.667459 110.649 0.956481 110.485 1.31896C110.003 2.16971 109.521 3.47785 110.413 5.89287C110.982 7.20402 111.376 8.58509 111.586 10.0002C111.46 11.3591 111.253 12.7093 110.967 14.0435C110.88 13.8594 110.804 13.67 110.74 13.4764C110.315 12.0674 109.38 10.8696 108.12 10.1191C107.211 9.54283 106.437 9.58857 105.919 10.2564C105.505 10.8945 105.324 11.6579 105.41 12.4152C105.546 14.8485 107.829 16.4403 108.52 16.8702C109.017 17.1796 109.467 17.5585 109.858 17.9954C109.025 20.4173 107.901 22.7276 106.51 24.8746C106.446 24.0984 106.22 23.3446 105.847 22.6621C105.474 21.9796 104.963 21.3838 104.345 20.9135C104.082 20.7628 103.784 20.6835 103.481 20.6835C103.178 20.6835 102.88 20.7628 102.617 20.9135C102.351 21.0503 102.118 21.2439 101.935 21.4807C100.752 23.0084 101.589 25.9631 102.399 27.1981C102.783 27.7638 103.089 28.3793 103.308 29.0276C101.604 30.8755 99.6858 32.5123 97.5957 33.9034C97.821 32.9792 97.7704 32.0087 97.4502 31.1133C96.9863 30.0156 96.3223 29.357 95.5763 29.2838C94.6667 29.1649 93.7116 29.9333 93.1658 31.2963C92.62 32.6593 93.1658 35.2481 93.5297 36.2636C90.2641 37.8328 86.7895 38.9174 83.2143 39.4836C82.7868 39.5568 82.4411 39.9867 82.5776 40.2795C82.6322 40.4075 82.805 40.7734 83.4872 40.6728C85.8882 40.3082 88.251 39.7234 90.546 38.9256C91.3033 40.2414 92.3409 41.3722 93.5842 42.2371C95.0215 43.0878 97.2228 43.2251 98.1324 42.0541C98.289 41.841 98.4011 41.5982 98.4621 41.3404C98.5231 41.0826 98.5316 40.8151 98.4871 40.5539C98.287 38.953 95.9675 38.0657 93.8208 37.59C96.4085 36.4156 98.8358 34.9122 101.043 33.1167C102.338 34.2748 103.79 35.242 105.355 35.9891C107.038 36.6935 109.348 36.6844 110.303 35.4585C110.486 35.2147 110.614 34.9335 110.676 34.6347C110.739 34.336 110.736 34.027 110.667 33.7296C110.258 31.3329 106.91 30.9395 105.655 30.784H105.337C104.799 30.7224 104.258 30.698 103.718 30.7108C104.154 30.2626 104.627 29.7961 105.027 29.2929L105.137 29.2015L105.218 29.0642C106.356 27.7248 107.381 26.2928 108.284 24.7831C109.745 25.4316 111.376 25.5857 112.932 25.2222C113.874 24.9475 114.711 24.3926 115.334 23.6304C115.625 23.3098 115.83 22.9199 115.931 22.4974C116.031 22.075 116.023 21.6338 115.907 21.2154C115.78 20.9104 115.574 20.6456 115.309 20.4491C115.045 20.2526 114.733 20.1317 114.406 20.0994C113.061 19.8106 111.66 19.9579 110.403 20.5202C111.691 17.1786 112.52 13.6764 112.869 10.11C113.973 8.48268 114.537 6.54515 114.479 4.57558C114.516 3.77583 114.347 2.97997 113.988 2.26515C113.63 1.55033 113.094 0.940783 112.432 0.495639" fill="white"/>
<path d="M9.61489 0.220703V9.48743H7.37716V3.41328L5.55788 5.85575H4.06606L2.24678 3.41328V9.48743H0V0.220703H2.31957L4.80286 3.6054L7.30437 0.220703H9.61489Z" fill="white"/>
</svg>
