<svg width="16" height="16" viewBox="0 0 16 16" fill="none" xmlns="http://www.w3.org/2000/svg">
<path d="M12.9487 0.0286498C12.8064 -0.0168301 12.6523 -0.00792096 12.5162 0.0536538C12.3801 0.115229 12.2717 0.225092 12.212 0.361983C12.0287 0.67865 11.8487 1.16864 12.1853 2.08197C12.397 2.5733 12.5449 3.08974 12.6253 3.61866C12.577 4.12611 12.4991 4.63029 12.392 5.12865C12.3569 5.06024 12.3279 4.98884 12.3053 4.91531C12.1409 4.38692 11.784 3.93961 11.3053 3.66199C10.972 3.44532 10.6687 3.46531 10.4753 3.71198C10.3204 3.95193 10.2532 4.23814 10.2853 4.52198C10.3386 5.42864 11.192 6.02531 11.4553 6.18864C11.6417 6.30469 11.8111 6.44604 11.9586 6.60865C11.6453 7.51464 11.2221 8.37886 10.6987 9.18199C10.6739 8.89219 10.5888 8.61078 10.4487 8.35588C10.3086 8.10098 10.1167 7.87824 9.88533 7.70199C9.78545 7.64092 9.67126 7.60722 9.55423 7.60429C9.4372 7.60137 9.32146 7.62931 9.21866 7.68531C9.11965 7.73846 9.03235 7.81102 8.96199 7.89865C8.51865 8.46865 8.83533 9.56532 9.13866 10.0353C9.27982 10.2519 9.39189 10.4862 9.472 10.732C8.83091 11.4246 8.10911 12.0379 7.32201 12.5587C7.40967 12.2123 7.39108 11.8476 7.26867 11.512C7.09533 11.102 6.84534 10.8453 6.56534 10.8186C6.23201 10.772 5.86531 11.0586 5.65864 11.5653C5.45198 12.072 5.65865 13.042 5.79532 13.422C4.56797 14.0118 3.26071 14.4184 1.91532 14.6286C1.75532 14.6553 1.62533 14.8187 1.67866 14.9287C1.69866 14.972 1.762 15.112 2.012 15.072C2.91402 14.9321 3.80113 14.7089 4.66198 14.4053C4.94967 14.895 5.33968 15.3168 5.80533 15.642C6.34533 15.9587 7.18534 16.0087 7.52868 15.572C7.58823 15.4928 7.63078 15.4022 7.65372 15.3059C7.67666 15.2095 7.67947 15.1095 7.66198 15.012C7.58865 14.412 6.71531 14.082 5.90864 13.9053C6.88076 13.4664 7.79355 12.9064 8.62532 12.2387C9.11115 12.6721 9.65671 13.0336 10.2453 13.312C10.8786 13.5753 11.7487 13.572 12.1053 13.1153C12.1741 13.0241 12.2219 12.9189 12.2456 12.8072C12.2692 12.6954 12.2679 12.5799 12.242 12.4687C12.0886 11.572 10.8287 11.422 10.3553 11.3653H10.2387C10.0373 11.3429 9.83458 11.334 9.63199 11.3386C9.79421 11.172 9.95754 10.9953 10.122 10.8087L10.162 10.772L10.1953 10.722C10.6222 10.2213 11.0068 9.68617 11.3453 9.12199C11.8955 9.36467 12.5093 9.42313 13.0953 9.28866C13.4495 9.18486 13.7642 8.97696 13.9986 8.69198C14.1077 8.57172 14.1844 8.42578 14.2218 8.26781C14.2591 8.10983 14.2557 7.94499 14.212 7.78866C14.1636 7.67478 14.0854 7.576 13.9858 7.50269C13.8861 7.42938 13.7685 7.38425 13.6453 7.37199C13.1399 7.26552 12.6137 7.32151 12.142 7.53199C12.6281 6.28154 12.941 4.97051 13.072 3.63532C13.4868 3.02782 13.697 2.30383 13.672 1.56865C13.688 1.26995 13.6257 0.97224 13.4912 0.705041C13.3567 0.437842 13.1548 0.210422 12.9053 0.0453124" fill="white"/>
</svg>
